<svg width="48" height="48" viewBox="0 0 48 48" fill="none" xmlns="http://www.w3.org/2000/svg">
<rect width="48" height="48" fill="#5A2D82"/>
<path d="M7.44886 31V17.9091H10.9091V20.2188H11.0625C11.3352 19.4517 11.7898 18.8466 12.4261 18.4034C13.0625 17.9602 13.8239 17.7386 14.7102 17.7386C15.608 17.7386 16.3722 17.9631 17.0028 18.4119C17.6335 18.8551 18.054 19.4574 18.2642 20.2188H18.4006C18.6676 19.4688 19.1506 18.8693 19.8494 18.4205C20.554 17.9659 21.3864 17.7386 22.3466 17.7386C23.5682 17.7386 24.5597 18.1278 25.321 18.9062C26.0881 19.679 26.4716 20.7756 26.4716 22.196V31H22.8494V22.9119C22.8494 22.1847 22.6563 21.6392 22.2699 21.2756C21.8835 20.9119 21.4006 20.7301 20.821 20.7301C20.1619 20.7301 19.6477 20.9403 19.2784 21.3608C18.9091 21.7756 18.7244 22.3239 18.7244 23.0057V31H15.2045V22.8352C15.2045 22.1932 15.0199 21.6818 14.6506 21.3011C14.2869 20.9205 13.8068 20.7301 13.2102 20.7301C12.8068 20.7301 12.4432 20.8324 12.1193 21.0369C11.8011 21.2358 11.5483 21.517 11.3608 21.8807C11.1733 22.2386 11.0795 22.6591 11.0795 23.142V31H7.44886ZM32.9702 23.4318V31H29.3395V17.9091H32.7997V20.2188H32.9531C33.2429 19.4574 33.7287 18.8551 34.4105 18.4119C35.0923 17.9631 35.919 17.7386 36.8906 17.7386C37.7997 17.7386 38.5923 17.9375 39.2685 18.3352C39.9446 18.733 40.4702 19.3011 40.8452 20.0398C41.2202 20.7727 41.4077 21.6477 41.4077 22.6648V31H37.777V23.3125C37.7827 22.5114 37.5781 21.8864 37.1634 21.4375C36.7486 20.983 36.1776 20.7557 35.4503 20.7557C34.9616 20.7557 34.5298 20.8608 34.1548 21.071C33.7855 21.2812 33.4957 21.5881 33.2855 21.9915C33.081 22.3892 32.9759 22.8693 32.9702 23.4318Z" fill="#F5F5F5"/>
<rect x="8" y="41" width="8" height="32" transform="rotate(-90 8 41)" fill="url(#paint0_linear_2_9)"/>
<defs>
<linearGradient id="paint0_linear_2_9" x1="12" y1="41" x2="12" y2="73" gradientUnits="userSpaceOnUse">
<stop stop-color="#5A2D82"/>
<stop offset="1" stop-color="#EAC32F"/>
</linearGradient>
</defs>
</svg>
